/* XPM */
static char * batterie2_xpm[] = {
"80 80 2 1",
" 	c None",
".	c #FFFFFF",
"                                                                                ",
"                                                                                ",
"                                                                                ",
"                                                                                ",
"                                                                                ",
"                                                                                ",
"                                                                                ",
"                                      ....................................      ",
"                                      ....................................      ",
"                                      ..                                ..      ",
"                                      ..            ........  ........  ..      ",
"                                      ..            ........  ........  ..      ",
"                                      ..            ........  ........  ..      ",
"                                    ....            ........  ........  ..      ",
"                                    ....            ........  ........  ..      ",
"                                    ....            ........  ........  ..      ",
"                                   .....            ........  ........  ..      ",
"                                   .....            ........  ........  ..      ",
"                                   .....            ........  ........  ..      ",
"                                   .....            ........  ........  ..      ",
"                                   .....            ........  ........  ..      ",
"                                    ....            ........  ........  ..      ",
"                                    ....            ........  ........  ..      ",
"                                    ....            ........  ........  ..      ",
"                                      ..            ........  ........  ..      ",
"                                      ..            ........  ........  ..      ",
"                                      ..            ........  ........  ..      ",
"                                      ..                                ..      ",
"                                      ....................................      ",
"                                      ....................................      ",
"                                                                                ",
"                                                                                ",
"                                                                                ",
"                                                                                ",
"                                                                                ",
"                                                                                ",
"                                                                                ",
"                                                                                ",
"                                                                                ",
"                                                                                ",
"                                                                                ",
"                                                                                ",
"                                                                                ",
"                                                                                ",
"                                                                                ",
"                                                                                ",
"                                                                                ",
"                                                                                ",
"                                                                                ",
"                                                                                ",
"                                                                                ",
"                                                                                ",
"                                                                                ",
"                                                                                ",
"                                                                                ",
"                                                                                ",
"                                                                                ",
"                                                                                ",
"                                                                                ",
"                                                                                ",
"                                                                                ",
"                                                                                ",
"                                                                                ",
"                                                                                ",
"                                                                                ",
"                                                                                ",
"                                                                                ",
"                                                                                ",
"                                                                                ",
"                                                                                ",
"                                                                                ",
"                                                                                ",
"                                                                                ",
"                                                                                ",
"                                                                                ",
"                                                                                ",
"                                                                                ",
"                                                                                ",
"                                                                                ",
"                                                                                "};
