/* XPM */
static char * torch1_xpm[] = {
"33 33 6 1",
" 	c None",
".	c #FFFB7C",
"+	c #515151",
"@	c #9B9B9B",
"#	c #4E5C4F",
"$	c #12A32F",
"                                 ",
"                                 ",
"                                 ",
"                                 ",
"                                 ",
"                                 ",
"       ...............           ",
"     ........................    ",
"      ......................     ",
"       ....................      ",
"        ..................       ",
"         ................        ",
"         ++++++++++++++++        ",
"         +@@@@@@@@@@@@@@+        ",
"          +@@@@@@@@@@@@+         ",
"           +@@@@@@@@@@+          ",
"            +@@@@@@@@+           ",
"             +@@@@@@+            ",
"              ++++++             ",
"              ++++++             ",
"              +++#$+             ",
"              ++++++             ",
"              ++++++             ",
"              ++++++             ",
"              ++++++             ",
"              ++++++             ",
"              ++++++             ",
"              ++++++             ",
"              ++++++             ",
"              ++++++             ",
"              ++++++             ",
"              @@@@@@             ",
"               @@@@              "};
