/* XPM */
static char * torch0_xpm[] = {
"33 33 5 1",
" 	c None",
".	c #515151",
"+	c #9B9B9B",
"@	c #E82321",
"#	c #A94641",
"                                 ",
"                                 ",
"                                 ",
"                                 ",
"                                 ",
"                                 ",
"                                 ",
"                                 ",
"                                 ",
"                                 ",
"                                 ",
"                                 ",
"        ................         ",
"        .++++++++++++++.         ",
"         .++++++++++++.          ",
"          .++++++++++.           ",
"           .++++++++.            ",
"            .++++++.             ",
"             ......              ",
"             ......              ",
"             ...@#.              ",
"             ......              ",
"             ......              ",
"             ......              ",
"             ......              ",
"             ......              ",
"             ......              ",
"             ......              ",
"             ......              ",
"             ......              ",
"             ......              ",
"             ++++++              ",
"              ++++               "};
