/* XPM */
static char * torch2_xpm[] = {
"33 33 5 1",
" 	c None",
".	c #515151",
"+	c #9B9B9B",
"@	c #6C4848",
"#	c #A90505",
"                                 ",
"                                 ",
"                                 ",
"                                 ",
"                                 ",
"                                 ",
"                                 ",
"                                 ",
"                                 ",
"                                 ",
"                                 ",
"                                 ",
"         ................        ",
"         .++++++++++++++.        ",
"          .++++++++++++.         ",
"           .++++++++++.          ",
"            .++++++++.           ",
"             .++++++.            ",
"              ......             ",
"              ......             ",
"              ...@#.             ",
"              ......             ",
"              ......             ",
"              ......             ",
"              ......             ",
"              ......             ",
"              ......             ",
"              ......             ",
"              ......             ",
"              ......             ",
"              ......             ",
"              ++++++             ",
"               ++++              "};
