/* XPM */
static char * batterie1_xpm[] = {
"80 80 2 1",
" 	c None",
".	c #FF1010",
"                                                                                ",
"                                                                                ",
"                                                                                ",
"                                                                                ",
"                                                                                ",
"                                                                                ",
"                                                                                ",
"                                      ....................................      ",
"                                      ....................................      ",
"                                      ..                                ..      ",
"                                      ..                      ........  ..      ",
"                                      ..                      ........  ..      ",
"                                      ..                      ........  ..      ",
"                                    ....                      ........  ..      ",
"                                    ....                      ........  ..      ",
"                                    ....                      ........  ..      ",
"                                   .....                      ........  ..      ",
"                                   .....                      ........  ..      ",
"                                   .....                      ........  ..      ",
"                                   .....                      ........  ..      ",
"                                   .....                      ........  ..      ",
"                                    ....                      ........  ..      ",
"                                    ....                      ........  ..      ",
"                                    ....                      ........  ..      ",
"                                      ..                      ........  ..      ",
"                                      ..                      ........  ..      ",
"                                      ..                      ........  ..      ",
"                                      ..                                ..      ",
"                                      ....................................      ",
"                                      ....................................      ",
"                                                                                ",
"                                                                                ",
"                                                                                ",
"                                                                                ",
"                                                                                ",
"                                                                                ",
"                                                                                ",
"                                                                                ",
"                                                                                ",
"                                                                                ",
"                                                                                ",
"                                                                                ",
"                                                                                ",
"                                                                                ",
"                                                                                ",
"                                                                                ",
"                                                                                ",
"                                                                                ",
"                                                                                ",
"                                                                                ",
"                                                                                ",
"                                                                                ",
"                                                                                ",
"                                                                                ",
"                                                                                ",
"                                                                                ",
"                                                                                ",
"                                                                                ",
"                                                                                ",
"                                                                                ",
"                                                                                ",
"                                                                                ",
"                                                                                ",
"                                                                                ",
"                                                                                ",
"                                                                                ",
"                                                                                ",
"                                                                                ",
"                                                                                ",
"                                                                                ",
"                                                                                ",
"                                                                                ",
"                                                                                ",
"                                                                                ",
"                                                                                ",
"                                                                                ",
"                                                                                ",
"                                                                                ",
"                                                                                ",
"                                                                                "};
