/* XPM */
static char * batterie3_xpm[] = {
"80 80 2 1",
" 	c None",
".	c #FFFFFF",
"                                                                                ",
"                                                                                ",
"                                                                                ",
"                                                                                ",
"                                                                                ",
"                                                                                ",
"                                                                                ",
"                                      ....................................      ",
"                                      ....................................      ",
"                                      ..                                ..      ",
"                                      ..  ........  ........  ........  ..      ",
"                                      ..  ........  ........  ........  ..      ",
"                                      ..  ........  ........  ........  ..      ",
"                                    ....  ........  ........  ........  ..      ",
"                                    ....  ........  ........  ........  ..      ",
"                                    ....  ........  ........  ........  ..      ",
"                                   .....  ........  ........  ........  ..      ",
"                                   .....  ........  ........  ........  ..      ",
"                                   .....  ........  ........  ........  ..      ",
"                                   .....  ........  ........  ........  ..      ",
"                                   .....  ........  ........  ........  ..      ",
"                                    ....  ........  ........  ........  ..      ",
"                                    ....  ........  ........  ........  ..      ",
"                                    ....  ........  ........  ........  ..      ",
"                                      ..  ........  ........  ........  ..      ",
"                                      ..  ........  ........  ........  ..      ",
"                                      ..  ........  ........  ........  ..      ",
"                                      ..                                ..      ",
"                                      ....................................      ",
"                                      ....................................      ",
"                                                                                ",
"                                                                                ",
"                                                                                ",
"                                                                                ",
"                                                                                ",
"                                                                                ",
"                                                                                ",
"                                                                                ",
"                                                                                ",
"                                                                                ",
"                                                                                ",
"                                                                                ",
"                                                                                ",
"                                                                                ",
"                                                                                ",
"                                                                                ",
"                                                                                ",
"                                                                                ",
"                                                                                ",
"                                                                                ",
"                                                                                ",
"                                                                                ",
"                                                                                ",
"                                                                                ",
"                                                                                ",
"                                                                                ",
"                                                                                ",
"                                                                                ",
"                                                                                ",
"                                                                                ",
"                                                                                ",
"                                                                                ",
"                                                                                ",
"                                                                                ",
"                                                                                ",
"                                                                                ",
"                                                                                ",
"                                                                                ",
"                                                                                ",
"                                                                                ",
"                                                                                ",
"                                                                                ",
"                                                                                ",
"                                                                                ",
"                                                                                ",
"                                                                                ",
"                                                                                ",
"                                                                                ",
"                                                                                ",
"                                                                                "};
